<svg id="headphonesalt" xmlns="http://www.w3.org/2000/svg" width="30.123" height="30.123" viewBox="0 0 30.123 30.123">
  <path id="Path_1610" data-name="Path 1610" d="M26.358,24.475H23.534a.954.954,0,0,1-.941-.941V14.12a.954.954,0,0,1,.941-.941h.941A9.529,9.529,0,0,0,22.048,6.3q-2.427-2.53-6.987-2.53T8.075,6.3a9.529,9.529,0,0,0-2.427,6.884h.941a.954.954,0,0,1,.941.941v9.413a.954.954,0,0,1-.941.941H5.648A3.766,3.766,0,0,0,9.413,28.24H11.3a1.859,1.859,0,0,1,1.883-1.883h1.883a1.858,1.858,0,0,1,1.883,1.868,1.851,1.851,0,0,1-.544,1.338,1.8,1.8,0,0,1-1.338.559H9.413a5.447,5.447,0,0,1-4-1.647,5.447,5.447,0,0,1-1.647-4A3.177,3.177,0,0,1,1.1,22.828a7.025,7.025,0,0,1-1.1-4A7.574,7.574,0,0,1,.515,16a5.111,5.111,0,0,1,1.368-2.03v-.794A12.883,12.883,0,0,1,2.927,8.06,12.949,12.949,0,0,1,9.943,1.044a13.066,13.066,0,0,1,10.237,0A12.949,12.949,0,0,1,27.2,8.06a12.883,12.883,0,0,1,1.044,5.119v.794A5.111,5.111,0,0,1,29.608,16a7.574,7.574,0,0,1,.515,2.824,7.025,7.025,0,0,1-1.1,4A3.177,3.177,0,0,1,26.358,24.475Z" fill="#fff"/>
</svg>
