<svg xmlns="http://www.w3.org/2000/svg" width="100" height="100" viewBox="0 0 100 100">
  <g id="Group_3338" data-name="Group 3338" transform="translate(-842 -962)">
    <rect id="Rectangle_1723" data-name="Rectangle 1723" width="100" height="100" rx="27" transform="translate(842 962)" fill="#fff" opacity="0.63"/>
    <g id="mic" transform="translate(869 981)">
      <path id="Path_1629" data-name="Path 1629" d="M23.024,39.778a9.56,9.56,0,0,1-7.007-2.926,9.472,9.472,0,0,1-2.926-6.93V10.209A9.4,9.4,0,0,1,16.017,3.2,9.69,9.69,0,0,1,23.024.353,9.433,9.433,0,0,1,29.954,3.2,9.524,9.524,0,0,1,32.8,10.209V29.922a9.6,9.6,0,0,1-2.849,6.93A9.309,9.309,0,0,1,23.024,39.778Zm17.326-9.856h5.7a20.747,20.747,0,0,1-5.775,14.553,23.261,23.261,0,0,1-13.937,7.469v10.78H19.713V51.945A23.1,23.1,0,0,1,5.775,44.4,20.833,20.833,0,0,1,0,29.922H5.544A15.4,15.4,0,0,0,10.78,41.78a17.6,17.6,0,0,0,12.243,4.774A17.323,17.323,0,0,0,35.19,41.78,15.5,15.5,0,0,0,40.349,29.922Z" transform="translate(0 -0.353)"/>
    </g>
  </g>
</svg>
