<svg xmlns="http://www.w3.org/2000/svg" width="21.92" height="18.999" viewBox="0 0 21.92 18.999">
  <g id="send" transform="translate(-1.5 -4.501)">
    <path id="Path_1640" data-name="Path 1640" d="M22.536,12.678l-.007,0L3.023,4.585a1.076,1.076,0,0,0-1.014.1,1.126,1.126,0,0,0-.509.94V10.8a1.1,1.1,0,0,0,.892,1.076L13.03,13.841a.183.183,0,0,1,0,.359L2.392,16.167A1.1,1.1,0,0,0,1.5,17.243v5.175a1.076,1.076,0,0,0,.484.9,1.093,1.093,0,0,0,.6.183,1.121,1.121,0,0,0,.435-.088l19.5-8.044.009,0a1.461,1.461,0,0,0,0-2.685Z" transform="translate(0 0)" fill="#fff"/>
  </g>
</svg>
